<?xml version="1.0" encoding="iso-8859-1"?>
<!-- Generator: Adobe Illustrator 19.0.1, SVG Export Plug-In . SVG Version: 6.00 Build 0)  -->
<svg version="1.1" id="Layer_1" xmlns="http://www.w3.org/2000/svg" xmlns:xlink="http://www.w3.org/1999/xlink" x="0px" y="0px"
	 viewBox="0 0 92.091 26.26" style="enable-background:new 0 0 92.091 26.26;" xml:space="preserve">
<g id="XMLID_26_">
	<path id="XMLID_452_" style="fill:#FFFFFF;" d="M12.273,17.441c-0.453-0.328-0.968-0.587-1.546-0.78
		c-0.578-0.192-1.166-0.356-1.763-0.491c-0.617-0.134-1.213-0.26-1.791-0.376c-0.578-0.115-1.093-0.255-1.546-0.419
		c-0.453-0.164-0.819-0.371-1.098-0.621c-0.279-0.25-0.419-0.578-0.419-0.983c0-0.327,0.096-0.592,0.289-0.795
		c0.193-0.202,0.429-0.356,0.708-0.462c0.279-0.106,0.578-0.178,0.896-0.217c0.318-0.038,0.592-0.058,0.823-0.058
		c0.732,0,1.382,0.135,1.951,0.405c0.355,0.169,0.629,0.439,0.822,0.811c0.24,0.462,0.686,0.779,1.207,0.779h0.582
		c1.081,0,1.791-1.193,1.214-2.106c-0.004-0.006-0.007-0.012-0.011-0.018c-0.376-0.587-0.848-1.064-1.416-1.43
		c-0.568-0.366-1.204-0.631-1.907-0.795c-0.704-0.163-1.44-0.245-2.211-0.245c-0.675,0-1.383,0.068-2.124,0.202
		c-0.742,0.135-1.416,0.371-2.023,0.708c-0.607,0.337-1.108,0.78-1.503,1.329c-0.395,0.549-0.592,1.228-0.592,2.037
		c0,0.751,0.134,1.382,0.404,1.892c0.27,0.511,0.631,0.93,1.084,1.257c0.452,0.328,0.963,0.588,1.531,0.78
		c0.568,0.193,1.16,0.357,1.777,0.491c0.597,0.135,1.185,0.261,1.763,0.376c0.578,0.116,1.093,0.256,1.546,0.419
		c0.452,0.164,0.823,0.38,1.112,0.65c0.289,0.27,0.443,0.617,0.462,1.04c0.019,0.424-0.082,0.766-0.303,1.026
		c-0.222,0.26-0.506,0.457-0.852,0.592c-0.347,0.135-0.718,0.227-1.112,0.275c-0.395,0.048-0.747,0.072-1.055,0.072
		c-0.886,0-1.647-0.192-2.283-0.578c-0.398-0.241-0.69-0.595-0.876-1.062c-0.225-0.563-0.733-0.961-1.34-0.961H2.182
		c-0.982,0-1.692,0.988-1.331,1.901c0.054,0.137,0.114,0.269,0.181,0.396c0.337,0.646,0.799,1.184,1.387,1.618
		C3.007,24.535,3.7,24.857,4.5,25.069c0.799,0.212,1.671,0.318,2.615,0.318c0.77,0,1.551-0.087,2.34-0.261
		c0.79-0.173,1.507-0.452,2.153-0.838c0.645-0.385,1.17-0.886,1.575-1.503c0.405-0.616,0.607-1.368,0.607-2.254
		c0-0.732-0.14-1.348-0.419-1.85C13.091,18.183,12.725,17.769,12.273,17.441z"/>
	<path id="XMLID_481_" style="fill:#FFFFFF;" d="M28.295,12.326c-0.617-0.809-1.392-1.459-2.326-1.951
		c-0.935-0.491-1.989-0.737-3.164-0.737c-1.117,0-2.119,0.212-3.005,0.636c-0.886,0.424-1.643,0.997-2.268,1.719
		c-0.626,0.722-1.108,1.56-1.445,2.514c-0.337,0.953-0.506,1.96-0.506,3.02c0,1.155,0.159,2.215,0.477,3.178
		c0.318,0.964,0.79,1.792,1.416,2.485c0.626,0.694,1.391,1.233,2.297,1.618c0.905,0.385,1.946,0.578,3.121,0.578
		c0.809,0,1.584-0.111,2.326-0.333c0.741-0.222,1.411-0.549,2.008-0.982c0.597-0.434,1.108-0.968,1.531-1.604
		c0.004-0.006,0.008-0.013,0.013-0.019c0.607-0.92-0.104-2.148-1.206-2.148h-0.112c-0.508,0-0.989,0.265-1.233,0.712
		c-0.263,0.482-0.597,0.866-1.002,1.152c-0.588,0.414-1.363,0.621-2.326,0.621c-0.694,0-1.291-0.12-1.792-0.361
		s-0.915-0.564-1.242-0.968c-0.328-0.405-0.573-0.876-0.737-1.416l-0.005-0.016c-0.25-0.826,0.368-1.66,1.232-1.66l8.243,0
		c0.748,0,1.351-0.621,1.326-1.369c-0.021-0.639-0.114-1.266-0.277-1.882C29.359,14.065,28.911,13.135,28.295,12.326z
		 M20.247,16.198c-0.804,0-1.349-0.818-1.039-1.56v0c0.202-0.481,0.472-0.9,0.809-1.257c0.337-0.356,0.741-0.636,1.214-0.838
		c0.472-0.202,0.997-0.304,1.575-0.304c0.559,0,1.064,0.111,1.517,0.332c0.452,0.222,0.838,0.511,1.156,0.867
		c0.318,0.357,0.568,0.776,0.751,1.257v0c0.274,0.726-0.262,1.503-1.039,1.503L20.247,16.198z"/>
	<path id="XMLID_484_" style="fill:#FFFFFF;" d="M77.688,12.326c-0.617-0.809-1.392-1.459-2.326-1.951
		c-0.935-0.491-1.989-0.737-3.164-0.737c-1.117,0-2.119,0.212-3.005,0.636c-0.886,0.424-1.643,0.997-2.268,1.719
		c-0.626,0.722-1.108,1.56-1.445,2.514c-0.337,0.953-0.506,1.96-0.506,3.02c0,1.155,0.159,2.215,0.477,3.178
		c0.318,0.964,0.79,1.792,1.416,2.485c0.626,0.694,1.391,1.233,2.297,1.618c0.905,0.385,1.946,0.578,3.121,0.578
		c0.809,0,1.584-0.111,2.326-0.333c0.741-0.222,1.411-0.549,2.008-0.982c0.597-0.434,1.108-0.968,1.531-1.604
		c0.004-0.006,0.008-0.013,0.013-0.019c0.607-0.92-0.104-2.148-1.206-2.148h-0.112c-0.508,0-0.989,0.265-1.233,0.712
		c-0.263,0.482-0.597,0.866-1.002,1.152c-0.588,0.414-1.363,0.621-2.326,0.621c-0.694,0-1.291-0.12-1.792-0.361
		s-0.915-0.564-1.242-0.968c-0.328-0.405-0.573-0.876-0.737-1.416l-0.005-0.016c-0.25-0.826,0.368-1.66,1.232-1.66l8.243,0
		c0.748,0,1.351-0.621,1.326-1.369c-0.021-0.639-0.114-1.266-0.277-1.882C78.752,14.065,78.304,13.135,77.688,12.326z M69.64,16.198
		c-0.804,0-1.349-0.818-1.039-1.56v0c0.202-0.481,0.472-0.9,0.809-1.257c0.337-0.356,0.741-0.636,1.214-0.838
		c0.472-0.202,0.997-0.304,1.575-0.304c0.559,0,1.064,0.111,1.517,0.332c0.452,0.222,0.838,0.511,1.156,0.867
		c0.318,0.357,0.568,0.776,0.751,1.257v0c0.274,0.726-0.262,1.503-1.039,1.503L69.64,16.198z"/>
	<path id="XMLID_487_" style="fill:#FFFFFF;" d="M34.103,24.983L34.103,24.983c0.91,0,1.647-0.737,1.647-1.647V5.998
		c0-0.91-0.737-1.647-1.647-1.647l0,0c-0.91,0-1.647,0.737-1.647,1.647v17.337C32.456,24.245,33.193,24.983,34.103,24.983z"/>
	<path id="XMLID_488_" style="fill:#FFFFFF;" d="M88.257,9.928c-0.482,0.193-0.92,0.448-1.315,0.766
		c-0.395,0.318-0.732,0.669-1.011,1.054c-0.279,0.386-0.467,0.78-0.564,1.185H85.31v-1.344c0-0.854-0.692-1.546-1.546-1.546h0
		c-0.854,0-1.546,0.692-1.546,1.546v11.747c0,0.91,0.737,1.647,1.647,1.647l0,0c0.91,0,1.647-0.737,1.647-1.647v-5.461
		c0-0.828,0.106-1.561,0.318-2.196c0.212-0.636,0.501-1.17,0.867-1.604c0.366-0.434,0.795-0.761,1.286-0.983
		c0.233-0.105,0.864-0.161,1.488-0.187c0.84-0.035,1.502-0.726,1.502-1.567v0c0-0.907-0.767-1.63-1.671-1.565
		C88.852,9.805,88.44,9.855,88.257,9.928z"/>
	<path id="XMLID_489_" style="fill:#FFFFFF;" d="M50.643,7.983c-0.653-0.001-1.202,0.538-1.187,1.203
		c-0.01,0.66,0.535,1.197,1.196,1.193c0.673-0.005,1.197-0.542,1.196-1.202C51.847,8.528,51.323,7.984,50.643,7.983z"/>
	<path id="XMLID_490_" style="fill:#FFFFFF;" d="M43.396,16.143c1.05,0,2.101-0.006,3.151,0.003c0.431,0.004,0.85-0.026,1.269-0.143
		c0.508-0.141,0.853-0.425,0.963-0.951c0.072-0.344,0.032-0.682-0.173-0.972c-0.292-0.413-0.719-0.573-1.211-0.574
		c-1.333-0.002-2.667-0.001-4-0.001c-0.064,0-0.129,0-0.199,0c-0.014-0.249,0-7.505,0-7.505c0-0.899,0.51-1.909,2.972-1.909
		c0.739,0,1.481,0.095,2.214-0.101c0.219-0.059,0.423-0.115,0.622-0.235c0.448-0.271,0.746-1.031,0.604-1.551
		c-0.174-0.633-0.812-1.115-1.428-1.124c-0.869-0.012-1.738-0.011-2.607,0c-0.294,0.004-0.589,0.017-0.878,0.07
		c-0.434,0.08-0.861,0.204-1.284,0.333c-0.501,0.153-0.959,0.404-1.378,0.713c-0.548,0.404-0.992,0.912-1.375,1.474
		c-0.3,0.44-0.52,0.922-0.67,1.43c-0.17,0.574-0.236,1.17-0.236,1.767c-0.004,5.221-0.003,11.046-0.004,16.393
		c0,0.951,0.77,1.722,1.722,1.722l0,0c0.951,0,1.722-0.771,1.722-1.722v-7.118C43.274,16.143,43.335,16.143,43.396,16.143z"/>
	<path id="XMLID_491_" style="fill:#FFFFFF;" d="M58.23,16.143c-1.05,0-2.101-0.006-3.151,0.003
		c-0.431,0.004-0.85-0.026-1.269-0.143c-0.508-0.141-0.853-0.425-0.963-0.951c-0.072-0.344-0.032-0.682,0.173-0.972
		c0.292-0.413,0.719-0.573,1.211-0.574c1.333-0.002,2.667-0.001,4-0.001c0.064,0,0.129,0,0.199,0c0.014-0.249,0-7.505,0-7.505
		c0-0.899-0.51-1.909-2.972-1.909c-0.739,0-1.481,0.095-2.214-0.101c-0.219-0.059-0.423-0.115-0.622-0.235
		c-0.448-0.271-0.746-1.031-0.604-1.551c0.174-0.633,0.812-1.115,1.428-1.124c0.869-0.012,1.738-0.011,2.607,0
		c0.294,0.004,0.589,0.017,0.878,0.07c0.434,0.08,0.861,0.204,1.284,0.333c0.501,0.153,0.959,0.404,1.378,0.713
		c0.548,0.404,0.992,0.912,1.375,1.474c0.3,0.44,0.52,0.922,0.67,1.43c0.17,0.574,0.236,1.17,0.236,1.767
		c0.004,5.221,0.003,11.046,0.004,16.393c0,0.951-0.77,1.722-1.722,1.722h0c-0.951,0-1.722-0.771-1.722-1.722v-7.118
		C58.353,16.143,58.291,16.143,58.23,16.143z"/>
	<path id="XMLID_492_" style="fill:#FFFFFF;" d="M55.795,6.705h-0.976c-0.165,0-0.299-0.134-0.299-0.299V5.708
		c0-0.165,0.134-0.299,0.299-0.299h0.976c0.165,0,0.299,0.134,0.299,0.299v0.697C56.095,6.571,55.961,6.705,55.795,6.705z"/>
	<path id="XMLID_493_" style="fill:#FFFFFF;" d="M50.652,6.28c-1.602,0-2.901,1.299-2.901,2.901s1.299,2.901,2.901,2.901
		c1.602,0,2.901-1.299,2.901-2.901S52.254,6.28,50.652,6.28z M50.652,10.97c-0.988,0-1.79-0.801-1.79-1.79s0.801-1.79,1.79-1.79
		c0.988,0,1.79,0.801,1.79,1.79S51.641,10.97,50.652,10.97z"/>
</g>
</svg>
